Coordinates
version=1
nRows=12
nColumns=24
inDegrees=yes

Units are S.I. units (second, meters, Newtons, ...)
Angles are in degrees.

endheader
time	pelvis_tilt	pelvis_list	pelvis_rotation	pelvis_tx	pelvis_ty	pelvis_tz	hip_flexion_r	hip_adduction_r	hip_rotation_r	knee_angle_r	ankle_angle_r	subtalar_angle_r	mtp_angle_r	hip_flexion_l	hip_adduction_l	hip_rotation_l	knee_angle_l	ankle_angle_l	subtalar_angle_l	mtp_angle_l	lumbar_extension	lumbar_bending	lumbar_rotation
      2.01500000	     10.77730095	     -6.25966298	      7.22410692	      0.27226041	      0.95521122	      0.00072468	     -7.51582681	     11.04511945	    -12.00184570	     -8.29306639	     16.75763728	    -10.69776295	     15.01626189	      6.40493994	     -9.87215785	      0.20844142	    -64.35092164	     12.68997004	     -9.06157065	     29.50621526	    -16.43417523	      8.25279876	     -0.97095444
      2.02000000	     10.92253752	     -5.97255196	      7.15254080	      0.27777656	      0.95609750	      0.00093318	     -8.23979989	     10.83374374	    -11.78834933	     -7.99033372	     16.83771438	    -10.75289909	     14.96695513	      6.64744341	     -9.52029533	     -0.03511979	    -63.78157381	     13.22629384	     -8.77198739	     29.09794987	    -16.63409328	      7.93572757	     -0.95925835
      2.02500000	     11.07660000	     -5.67906894	      7.07799719	      0.28326251	      0.95694786	      0.00113358	     -8.96798468	     10.61293909	    -11.57483500	     -7.69341807	     16.93046972	    -10.80543378	     14.92023631	      6.86298322	     -9.15918665	     -0.27786837	    -63.14735649	     13.74070750	     -8.46032179	     28.71752743	    -16.84640217	      7.61169324	     -0.93290105
      2.03000000	     11.20721225	     -5.37457073	      7.00983349	      0.28874121	      0.95772518	      0.00128535	     -9.64709367	     10.36632392	    -11.45934481	     -7.44551433	     17.05917704	    -10.76328865	     14.72568287	      7.08506528	     -8.77509967	     -0.52013916	    -62.45682592	     14.38774906	     -8.07511108	     26.75253438	    -17.03289223	      7.27696810	     -0.94521123
      2.03500000	     11.32787210	     -5.09293638	      6.90991084	      0.29420118	      0.95844098	      0.00153291	    -10.32031371	     10.14636043	    -11.21668380	     -7.17557219	     17.14973005	    -10.86527050	     14.69927790	      7.29908965	     -8.43487919	     -0.80042191	    -61.69122633	     14.84020957	     -7.73918664	     26.73422658	    -17.20991170	      6.95122682	     -0.90776089
      2.04000000	     11.48342137	     -4.78265393	      6.79246471	      0.29967455	      0.95919380	      0.00176856	    -11.02459002	      9.88849885	    -11.03354218	     -6.92680975	     17.21978757	    -10.91454769	     14.66723691	      7.42726050	     -8.06901425	     -1.12525193	    -60.81997875	     15.27012359	     -7.49818703	     26.62170344	    -17.42829065	      6.59520577	     -0.88607372
      2.04500000	     11.62650432	     -4.47279437	      6.68207374	      0.30511229	      0.95985706	      0.00198299	    -11.70643247	      9.62599942	    -10.85767873	     -6.68994525	     17.35734466	    -10.92819571	     14.64290495	      7.56071359	     -7.69412519	     -1.42505691	    -59.89710255	     15.66095864	     -7.23956872	     26.47003291	    -17.63290211	      6.23857372	     -0.84794645
      2.05000000	     11.77652463	     -4.15640458	      6.55898870	      0.31053417	      0.96049412	      0.00219906	    -12.38127424	      9.34905201	    -10.70817097	     -6.47840466	     17.48557476	    -10.92764102	     14.61121300	      7.65654939	     -7.31655424	     -1.75337949	    -58.89294138	     16.03087291	     -7.02865077	     26.27237784	    -17.84892573	      5.87225517	     -0.81775781
      2.05500000	     11.94497119	     -3.81526099	      6.48187600	      0.31597564	      0.96112185	      0.00230985	    -13.08217027	      9.05190823	    -10.68149212	     -6.25493066	     17.62429717	    -10.85224854	     14.52300295	      7.70842456	     -6.89550607	     -2.02786616	    -57.80658600	     16.37783235	     -6.87149788	     25.74604047	    -18.07722905	      5.49404495	     -0.84513623
      2.06000000	     12.02595317	     -3.52827186	      6.29632345	      0.32134687	      0.96155471	      0.00260078	    -13.63447830	      8.77320393	    -10.47422410	     -6.12818637	     17.81220895	    -10.83493950	     14.49975238	      7.83659979	     -6.55804535	     -2.43246144	    -56.68018940	     16.70269993	     -6.68471297	     25.58418736	    -18.22071806	      5.13441428	     -0.75007269
      2.06500000	     12.17434496	     -3.19946311	      6.15945091	      0.32674300	      0.96205489	      0.00278682	    -14.28030981	      8.46585864	    -10.38020970	     -5.96180535	     17.97064243	    -10.79298054	     14.46108829	      7.85303446	     -6.16416685	     -2.78763333	    -55.44562374	     16.97064677	     -6.60060130	     25.36703926	    -18.43328301	      4.74804123	     -0.71635789
      2.07000000	     12.30003717	     -2.87962056	      6.01431023	      0.33211289	      0.96245933	      0.00296675	    -14.88113530	      8.15678935	    -10.29814644	     -5.83070364	     18.17089886	    -10.70984824	     14.42909369	      7.87532864	     -5.77791122	     -3.15287815	    -54.14813240	     17.20659750	     -6.55027146	     25.15885481	    -18.62186910	      4.36683450	     -0.68176791
